<svg xmlns="http://www.w3.org/2000/svg" version="1.1" xmlns:xlink="http://www.w3.org/1999/xlink" xmlns:svgjs="http://svgjs.dev/svgjs" width="1000" height="1000" viewBox="0 0 1000 1000"><rect width="1000" height="1000" fill="#000000"></rect><g transform="matrix(0.7,0,0,0.7,149.57575757575756,282.1265587044535)"><svg viewBox="0 0 396 247" data-background-color="#1d3461" preserveAspectRatio="xMidYMid meet" height="623" width="1000" xmlns="http://www.w3.org/2000/svg" xmlns:xlink="http://www.w3.org/1999/xlink"><g id="tight-bounds" transform="matrix(1,0,0,1,0.2400000000000091,-0.09999999999999432)"><svg viewBox="0 0 395.52 247.2" height="247.2" width="395.52"><g><svg></svg></g><g><svg viewBox="0 0 395.52 247.2" height="247.2" width="395.52"><g transform="matrix(1,0,0,1,113.1048420843082,47.215199999999996)"><svg viewBox="0 0 169.31031583138358 152.7696" height="152.7696" width="169.31031583138358"><g><svg viewBox="0 0 169.31031583138358 152.7696" height="152.7696" width="169.31031583138358"><g><svg viewBox="0 0 244.43135999999998 220.55171837163567" height="152.7696" width="169.31031583138358"><g><svg viewBox="0 0 244.43135999999998 220.55171837163567" height="220.55171837163567" width="244.43135999999998"><g id="textblocktransform"><svg viewBox="0 0 244.43135999999998 220.55171837163567" height="220.55171837163567" width="244.43135999999998" id="textblock"><g><svg viewBox="0 0 244.43135999999998 136.40965791855203" height="136.40965791855203" width="244.43135999999998"><g transform="matrix(1,0,0,1,0,0)"><svg width="244.43135999999998" viewBox="3.6500000953674316 -36.54999923706055 66.29999542236328 37" height="136.40965791855203" data-palette-color="#ffffff"><path d="M33.8-32.4L33.8-32.4 33.8-3.7Q33.8-1.85 35.15-1.3L35.15-1.3Q33.85 0.45 31.95 0.45L31.95 0.45Q28.55 0.45 28.55-3.75L28.55-3.75 28.55-16.3 10.25-16.3 10.25-3.7Q10.25-1.9 11.6-1.3L11.6-1.3Q10.4 0.45 8.4 0.45L8.4 0.45Q5 0.45 5-3.75L5-3.75 5-32.45Q5-34.2 3.65-34.8L3.65-34.8Q4.8-36.55 6.8-36.55L6.8-36.55Q10.25-36.55 10.25-32.4L10.25-32.4 10.25-20 28.55-20 28.55-32.45Q28.55-34.2 27.2-34.8L27.2-34.8Q28.35-36.55 30.35-36.55L30.35-36.55Q33.8-36.55 33.8-32.4ZM54.35-32.15L48.95-32.15 48.95-18.45 54.35-18.45Q58.35-18.45 60.42-20.23 62.5-22 62.5-25.25 62.5-28.5 60.42-30.33 58.35-32.15 54.35-32.15L54.35-32.15ZM66.1 0.45L66.1 0.45Q64.4 0.45 63.27-0.38 62.15-1.2 60.6-3.5L60.6-3.5 53.05-14.5 48.95-14.5 48.95-3.7Q48.95-1.9 50.35-1.3L50.35-1.3Q49.05 0.45 47.1 0.45L47.1 0.45Q43.7 0.45 43.7-3.75L43.7-3.75 43.7-31.8Q43.7-33.6 42.35-34.2L42.35-34.2Q43.75-36.15 46.5-36.15L46.5-36.15 54.55-36.15Q60.45-36.15 64.22-33.27 68-30.4 68-25.3L68-25.3Q68-21.25 65.55-18.6 63.1-15.95 59-15L59-15 66.5-4.75Q67.95-2.75 69.95-2.35L69.95-2.35Q68.6 0.45 66.1 0.45Z" opacity="1" transform="matrix(1,0,0,1,0,0)" fill="#ffffff" class="wordmark-text-0" data-fill-palette-color="primary" id="text-0"></path></svg></g></svg></g><g transform="matrix(1,0,0,1,0,168.6127043213321)"><svg viewBox="0 0 244.43135999999998 51.93901405030355" height="51.93901405030355" width="244.43135999999998"><g transform="matrix(1,0,0,1,0,0)"><svg width="244.43135999999998" viewBox="2.049999952316284 -36 172.94000244140625 36.75" height="51.93901405030355" data-palette-color="#ffa500"><path d="M15.55-35.95Q20.25-35.95 22.63-33.6 25-31.25 26.05-29.15L26.05-29.15Q26.25-28.65 26.45-28.1 26.65-27.55 26.8-27.15L26.8-27.15Q26.85-27.05 26.85-26.9L26.85-26.9Q26.85-26.75 26.73-26.65 26.6-26.55 26.4-26.48 26.2-26.4 25.95-26.25L25.95-26.25 24.8-25.65Q23.05-24.7 22.35-24.4L22.35-24.4Q21.25-23.75 20.55-23.25L20.55-23.25 19.6-22.6Q19.3-22.35 18.65-21.95L18.65-21.95Q18.45-21.8 18.25-21.8L18.25-21.8Q17.95-21.7 17.85-21.7L17.85-21.7Q17.6-21.7 17.43-22.05 17.25-22.4 17.1-22.6L17.1-22.6Q17-22.75 16.7-23.2 16.4-23.65 15.98-23.98 15.55-24.3 15-24.3L15-24.3Q13.5-24.3 12.65-21.98 11.8-19.65 11.8-17.1L11.8-17.1Q11.8-14.75 11.93-13.33 12.05-11.9 12.73-10.7 13.4-9.5 14.95-9.5L14.95-9.5Q16.95-9.5 17.75-12L17.75-12Q18.1-13.05 18.1-14.5L18.1-14.5 17.1-14.7Q15.9-14.9 15.35-14.95L15.35-14.95Q14.4-15.05 14.4-15.65L14.4-15.65Q14.4-16 14.8-17.6L14.8-17.6Q15.05-18.4 15.3-18.55 15.55-18.7 16.05-18.65L16.05-18.65Q16.3-18.6 17.23-18.48 18.15-18.35 20.15-18.15L20.15-18.15 22.9-17.75Q25.7-17.35 26.65-17.3L26.65-17.3Q27.5-17.25 27.8-16.4L27.8-16.4Q27.9-15.9 27.85-15.55L27.85-15.55Q27.5-9.35 25.53-5.73 23.55-2.1 20.95-0.7 18.35 0.7 15.8 0.7L15.8 0.7Q13.5 0.7 10.33-0.75 7.15-2.2 4.6-6.15 2.05-10.1 2.05-16.9L2.05-16.9Q2.05-24.8 4.45-29.03 6.85-33.25 9.85-34.6 12.85-35.95 15.55-35.95L15.55-35.95ZM53.7-33.25L53.7-32.7Q53.7-31.55 53.5-31.55L53.5-31.55Q53.2-31.55 52.82-31.63 52.45-31.7 51.9-31.7L51.9-31.7 43.9-31.7 37.7-31.75Q37.4-31.75 35.45-31.6L35.45-31.6 34.3-31.5 34.2-30.15Q34.15-29.4 34.15-27.8L34.15-27.8Q34.15-27 34.25-25.7L34.25-25.7Q34.35-24.5 34.35-23.95L34.35-23.95 34.35-21.95Q34.35-21.15 34.4-20.7L34.4-20.7Q34.85-20.65 35.75-20.65L35.75-20.65 37.75-20.65Q38.05-20.65 38.95-20.75L38.95-20.75Q40.25-20.85 41.2-20.85L41.2-20.85Q41.6-20.85 44-20.7L44-20.7 45.1-20.65Q45.5-20.65 46.25-20.73 47-20.8 47.7-20.8L47.7-20.8 49.35-20.75Q50.65-20.65 51.15-20.65L51.15-20.65Q51.7-20.65 51.9-20.7L51.9-20.7 52.2-20.75Q52.55-20.75 52.7-20.53 52.85-20.3 52.8-20.1L52.8-20.1Q52.75-19.75 52.75-19.23 52.75-18.7 52.7-18.3L52.7-18.3Q52.65-17.9 52.55-17.82 52.45-17.75 51.95-17.75L51.95-17.75 49.95-17.95Q46.2-18.3 45.05-18.3L45.05-18.3Q40.8-18.3 38.8-18.15L38.8-18.15Q38-18.05 37.05-18.05 36.1-18.05 35.85-18.05L35.85-18.05Q34.9-18.05 34.45-18.1L34.45-18.1 34.3-17.3Q34.2-16.4 34.2-15.7L34.2-15.7Q34.2-15.1 34.3-14.3L34.3-14.3Q34.4-13.5 34.4-12.9L34.4-12.9 34.45-6.95 34.4-4.45Q34.35-4 34.35-3.2L34.35-3.2Q35-3.15 36.25-3.15L36.25-3.15Q37.3-3.1 39.5-3.1L39.5-3.1 42.2-3.05Q43.05-3 44.8-3L44.8-3Q45.85-3 47.55-3.1L47.55-3.1 49.65-3.15Q50.85-3.15 51.65-3.1 52.45-3.05 52.85-3.05L52.85-3.05Q53.25-3.05 53.32-2.9 53.4-2.75 53.4-2.25L53.4-2.25Q53.4-1.9 53.35-1.53 53.3-1.15 53.3-0.7L53.3-0.7Q53.3-0.35 53.05-0.23 52.8-0.1 52.25-0.1L52.25-0.1Q51.7-0.1 51.35-0.15L51.35-0.15Q50-0.3 45.9-0.3L45.9-0.3Q43.4-0.3 42.3-0.25L42.3-0.25Q41.45-0.2 39.5-0.2L39.5-0.2 34.85-0.25Q34.05-0.3 32.95-0.3L32.95-0.3Q32.25-0.3 32.02-0.48 31.8-0.65 31.8-1.05L31.8-1.05 31.85-1.85Q31.9-2.05 31.9-2.3L31.9-2.3Q31.9-2.45 31.85-3.03 31.8-3.6 31.8-5.15L31.8-5.15Q31.8-6.65 31.7-10.05L31.7-10.05Q31.55-12.85 31.55-15.45L31.55-15.45Q31.55-16.55 31.8-21.8L31.8-21.8Q31.85-22.85 31.9-23.9 31.95-24.95 31.95-25.8L31.95-25.8Q31.95-31.6 31.8-33.45L31.8-33.45Q31.65-34.65 33.25-34.65L33.25-34.65Q33.65-34.65 34.55-34.55L34.55-34.55Q35.35-34.45 35.75-34.45L35.75-34.45 38.9-34.55Q42.3-34.75 44.15-34.75L44.15-34.75Q46.3-34.75 50.2-34.65L50.2-34.65Q51.45-34.6 52.85-34.6L52.85-34.6Q53.45-34.6 53.6-34.3 53.75-34 53.72-33.68 53.7-33.35 53.7-33.25L53.7-33.25ZM68.9-35.25Q73.25-35.25 75.34-33.55 77.45-31.85 77.55-31.75L77.55-31.75Q78.05-31.4 78.05-31.05L78.05-31.05Q78.05-30.85 77.84-30.65L77.84-30.65Q77.7-30.45 77.25-29.8 76.8-29.15 76.55-29.15L76.55-29.15Q76.3-29.15 75.9-29.4L75.9-29.4 75.55-29.7Q71.75-32.45 69.05-32.45L69.05-32.45Q65.59-32.45 63.82-30.88 62.05-29.3 62.05-26.9L62.05-26.9Q62.05-24.85 63.52-23.4 65-21.95 67.4-20.65L67.4-20.65Q68.09-20.35 68.84-20.1L68.84-20.1Q71.34-19.15 73.22-18.07 75.09-17 76.59-14.83 78.09-12.65 78.09-9.35L78.09-9.35Q78.09-3.7 74.25-1.63 70.4 0.45 65.65 0.45L65.65 0.45Q62.9 0.45 60.67-0.8 58.45-2.05 57.5-3L57.5-3Q57-3.45 57.25-3.9L57.25-3.9Q57.3-4 57.67-4.7 58.05-5.4 58.35-5.4L58.35-5.4 58.45-5.4Q58.6-5.4 58.72-5.33 58.85-5.25 59.02-5.05 59.2-4.85 59.45-4.6L59.45-4.6Q60.1-3.95 62-3.13 63.9-2.3 65.15-2.3L65.15-2.3Q67.8-2.3 70.2-3.43 72.59-4.55 72.59-8.2L72.59-8.2Q72.59-9.75 71.22-10.9 69.84-12.05 66.95-13.6L66.95-13.6 64.8-14.8Q61.3-16.8 59.32-19.1 57.35-21.4 57.35-25.15L57.35-25.15Q57.35-28.25 59.12-30.55 60.9-32.85 63.57-34.05 66.25-35.25 68.9-35.25L68.9-35.25ZM94.04-27.2Q92.79-27.2 91.57-26.15 90.34-25.1 89.49-22.68 88.64-20.25 88.64-16.45L88.64-16.45Q88.64-12.75 89.72-10.58 90.79-8.4 92.17-7.55 93.54-6.7 94.54-6.7L94.54-6.7Q95.44-6.7 96.39-7.33 97.34-7.95 98.04-8.65L98.04-8.65Q98.14-8.75 98.37-9 98.59-9.25 98.79-9.25L98.79-9.25Q99.04-9.25 99.39-9.05L99.39-9.05 103.64-6.7Q103.84-6.6 104.27-6.43 104.69-6.25 104.87-6.1 105.04-5.95 105.04-5.7L105.04-5.7Q105.04-5.45 104.89-5.15L104.89-5.15Q103.79-3.3 101.44-1.35 99.09 0.6 94.94 0.6L94.94 0.6Q91.69 0.6 88.72-1.83 85.74-4.25 83.94-8.45 82.14-12.65 82.14-17.7L82.14-17.7Q82.14-22.7 83.87-26.7 85.59-30.7 88.29-32.95 90.99-35.2 93.84-35.2L93.84-35.2Q97.39-35.2 99.57-33.73 101.74-32.25 102.69-30.9L102.69-30.9Q102.89-30.6 103.07-30.35 103.24-30.1 103.24-29.85L103.24-29.85Q103.24-29.55 102.69-29.05L102.69-29.05Q100.39-27.25 99.39-25.9L99.39-25.9Q98.89-25.25 98.54-24.93 98.19-24.6 97.84-24.6L97.84-24.6Q97.49-24.6 97.04-25.1L97.04-25.1Q95.99-26.25 95.42-26.73 94.84-27.2 94.04-27.2L94.04-27.2ZM114.19-34.6L114.09-31.7Q113.84-24.7 113.84-24.1L113.84-24.1 113.79-16.95Q113.79-16 113.84-15.3L113.84-15.3 113.89-12.3Q113.89-11.25 113.84-11L113.84-11Q113.79-10.7 113.82-10.45 113.84-10.2 113.84-10.1L113.84-10.1Q113.84-9.9 113.89-9.85L113.89-9.85 115.09-9.75Q116.69-9.65 117.74-9.7L117.74-9.7 126.99-9.8Q126.99-9.8 132.24-9.65L132.24-9.65 134.59-9.6Q135.14-9.55 135.14-9.3L135.14-9.3Q135.14-9.2 135.09-9.05 135.04-8.9 135.04-8.75L135.04-8.75 135.04-6.45Q135.04-5.55 135.34-2.65L135.34-2.65 135.54-0.55 135.59-0.3Q135.59-0.05 135.34 0.03 135.09 0.1 134.44 0.1L134.44 0.1 130.79 0.05 124.59-0.05Q123.34-0.05 121.09 0.1L121.09 0.1Q120.09 0.15 118.87 0.2 117.64 0.25 116.44 0.25L116.44 0.25 115.59 0.2Q115.29 0.15 114.44 0.15L114.44 0.15 112.19 0.2Q111.59 0.25 110.64 0.25L110.64 0.25Q109.99 0.25 109.87 0.08 109.74-0.1 109.77-0.45 109.79-0.8 109.79-1.05L109.79-1.05Q109.79-2.15 109.94-4.85L109.94-4.85 110.09-10 109.99-12.35Q109.94-13.05 109.89-14.03 109.84-15 109.84-16.05L109.84-16.05Q109.84-14.35 110.14-19.48 110.44-24.6 110.44-25.8L110.44-25.8 110.39-31.45 110.29-34.65 110.29-34.7Q110.29-35.1 110.84-35.1L110.84-35.1 111.54-35.05Q111.79-35.05 112.19-35.02 112.59-35 113.44-35L113.44-35 113.89-35Q114.19-35 114.19-34.6L114.19-34.6ZM140.29-35.25Q140.94-35.2 141.56-35.23 142.19-35.25 142.64-35.25L142.64-35.25Q143.74-35.25 144.24-35.2L144.24-35.2Q144.84-35.15 145.09-34.95 145.34-34.75 145.34-34.4L145.34-34.4Q145.34-34.15 145.29-33.85 145.24-33.55 145.19-33.3L145.19-33.3Q144.64-29.05 144.59-24.55L144.59-24.55Q144.54-23.25 144.54-20.55L144.54-20.55 144.59-14.5Q144.64-13.75 144.64-12.95L144.64-12.95 144.69-10.95Q144.79-8.35 144.79-7.1L144.79-7.1Q144.79-6.15 144.74-5.95L144.74-5.95Q144.69-5.75 144.69-4.8L144.69-4.8 144.74-2.05Q144.79-1.45 144.79-0.55L144.79-0.55Q144.84 0.1 144.41 0.28 143.99 0.45 143.29 0.4L143.29 0.4 138.74 0.4Q137.99 0.45 137.79 0.08 137.59-0.3 137.54-1.15L137.54-1.15Q137.44-1.5 137.64-3L137.64-3Q137.84-4.4 137.84-5.4L137.84-5.4Q137.84-5.75 138.19-12.15L138.19-12.15Q138.49-16.85 138.49-17.3L138.49-17.3 138.59-22.2 138.69-26.75 138.79-29.45 138.89-31.25 138.89-33.35Q138.89-35.3 139.89-35.3L139.89-35.3Q140.14-35.3 140.29-35.25L140.29-35.25ZM162.39-36Q166.49-36 168.59-34.52 170.69-33.05 171.51-31.83 172.34-30.6 172.54-30.3L172.54-30.3Q173.04-29.65 173.04-29.3L173.04-29.3Q173.04-29 172.84-28.8 172.64-28.6 172.34-28.45 172.04-28.3 171.94-28.2L171.94-28.2Q171.34-27.8 170.34-26.95L170.34-26.95Q169.89-26.6 169.01-25.93 168.14-25.25 167.84-25.1L167.84-25.1Q167.64-24.95 167.44-24.95L167.44-24.95Q167.09-24.95 166.79-25.35 166.49-25.75 166.39-25.9L166.39-25.9Q166.29-26.05 165.86-26.55 165.44-27.05 164.79-27.4 164.14-27.75 163.34-27.75L163.34-27.75Q161.84-27.75 160.99-25.8 160.14-23.85 160.14-18.85L160.14-18.85Q160.14-15.55 160.69-13.45 161.24-11.35 162.01-10.43 162.79-9.5 163.49-9.5L163.49-9.5Q164.49-9.5 165.01-9.95 165.54-10.4 165.94-11.65L165.94-11.65Q166.34-12.85 167.24-12.85L167.24-12.85Q167.54-12.85 167.91-12.75 168.29-12.65 168.49-12.6L168.49-12.6Q168.99-12.4 170.94-11.98 172.89-11.55 174.29-11.3L174.29-11.3Q174.99-11.15 174.99-10.1L174.99-10.1Q174.99-9.6 174.94-9.35L174.94-9.35Q174.89-8.7 174.54-7.6L174.54-7.6Q173.49-4.4 170.96-1.83 168.44 0.75 163.44 0.75L163.44 0.75Q160.39 0.75 157.29-1.1 154.19-2.95 152.04-7.28 149.89-11.6 149.89-18.65L149.89-18.65Q149.89-28.65 153.74-32.33 157.59-36 162.39-36L162.39-36Z" opacity="1" transform="matrix(1,0,0,1,0,0)" fill="#ffffff" class="slogan-text-1" data-fill-palette-color="secondary" id="text-1"></path></svg></g></svg></g></svg></g></svg></g></svg></g></svg></g></svg></g><g><path d="M208.255 0c34.06 0 64.903 13.777 87.259 36.062l-6.147 0c-21.29-19.736-49.792-31.802-81.112-31.802-31.32 0-59.822 12.065-81.112 31.802l-6.147 0c22.356-22.285 53.199-36.062 87.259-36.062zM331.855 123.6c0 25.522-7.736 49.238-20.99 68.93v-7.958c10.626-17.844 16.73-38.695 16.73-60.972 0-22.277-6.104-43.128-16.73-60.972v-7.958c13.255 19.692 20.99 43.408 20.99 68.93zM208.255 247.2c-34.06 0-64.903-13.777-87.259-36.062h6.147c21.29 19.736 49.792 31.802 81.112 31.802 31.32 0 59.822-12.065 81.112-31.802h6.147c-22.356 22.285-53.199 36.062-87.259 36.062z" fill="#ffffff" stroke="transparent" data-fill-palette-color="tertiary"></path></g></svg></g><defs></defs></svg><rect width="395.52" height="247.2" fill="none" stroke="none" visibility="hidden"></rect></g></svg></g></svg>